<?xml version="1.0" encoding="utf-8"?>
<svg width="1024" height="1024" xmlns="http://www.w3.org/2000/svg">
  <g>
    <title>Layer 1</title>
    <g id="svg_1">
      <path fill="#ffffff" id="svg_4" d="M 308.2 282.6 C 307.9 282.3 302.1 272.4 293.2 281.8 C 268.2 308.1 237.1 368.6 239.1 367.1 C 183.9 375 132.3 404.2 97.2 447.6 C 61 492.4 42.6 549.8 47.2 607.3 C 52 666.9 80.5 723.5 126.5 762 C 167.8 796.6 219.7 815.2 273.5 815.2 C 289.5 815.2 770.3 815.2 784 815.2 C 795.1 815.2 826.2 800.6 821.3 795.7 C 816.7 791.1 315 289.1 308.2 282.6 Z"/>
    </g>
    <g id="svg_5">
      <path fill="#ffffff" id="svg_8" d="M 978.5 621.7 C 978.6 608.9 978.7 634.7 978.6 621.8 C 978.3 550 937.1 482.4 873 449.7 C 855.1 440.6 820.6 435.7 822.9 438 C 809.5 367.3 770.7 302 714.9 256.5 C 657.1 209.3 583.7 184 509.1 186.2 C 457.6 187.7 407 202.2 362.4 227.9 C 356.8 231.1 355.8 239.1 360.4 243.6 C 365.1 248.3 882.4 765.9 889.4 772.6 C 889.7 772.9 900.2 776.8 904.4 773.5 C 950.8 737.1 978.2 680.6 978.5 621.7 Z"/>
    </g>
    <g id="svg_9">
      <g id="svg_10">
        <path fill="#ffffff" id="svg_11" d="M 98.4 149.3 C 105.4 156.3 874.6 925.6 884.9 935.8 C 885.3 936.2 885.8 936.7 886.2 937.1 C 897.3 948.2 917.7 949 928.6 937.1 C 939.6 925.1 940.5 906.5 928.6 894.7 C 921.6 887.7 152.4 118.4 142.1 108.2 C 141.7 107.8 141.2 107.3 140.8 106.9 C 129.7 95.8 109.3 95 98.4 106.9 C 87.4 118.9 86.5 137.5 98.4 149.3 Z"/>
      </g>
    </g>
  </g>
</svg>