<svg width="256" height="256" xmlns="http://www.w3.org/2000/svg">
 <g>
  <title>background</title>
  <rect fill="none" id="canvas_background" height="752" width="752" y="-1" x="-1"/>
 </g>

 <g>
  <title>Layer 1</title>
  <rect stroke="#000000" rx="30" id="svg_4" height="255.50011" width="255.50011" y="0.24995" x="0.24995" opacity="undefined" stroke-opacity="null" stroke-dasharray="null" stroke-width="0" fill="#333333"/>
  <path stroke-opacity="0" stroke-width="0" stroke="#000000" id="svg_1" d="m75.22167,89.46499l1.14282,-0.19047c-6.63468,3.14274 -15.555,9.65045 -21.52303,14.25346c-9.65045,7.39656 -17.17399,18.38029 -23.49122,29.491c26.69745,-14.50741 51.36323,-16.63432 56.66463,-15.30104c0.06349,0.03174 -2.44436,14.44392 -11.65037,26.53873c-9.68219,12.66621 -26.0943,22.9833 -26.0943,22.9833c5.99978,0.69839 12.03131,0.82537 17.99935,0.25396c10.22185,-0.95235 20.72941,-3.93637 29.04657,-11.01548c3.68241,-3.14274 10.41232,-12.38051 9.68219,-11.04722c-3.96811,9.90441 -4.53952,21.17384 -3.90462,31.93536c0.34919,6.31723 1.01584,12.57098 2.88878,18.53902c1.58724,5.11093 3.90462,9.90441 6.53945,14.38043l2.60308,2.06342c0.03174,-0.22221 -2.50785,-35.49079 15.39627,-52.91873c32.57026,-31.6814 68.56896,-1.5555 68.56896,-1.5555s-1.42852,-23.87216 -28.44342,-35.45904c64.69608,-5.96804 50.69659,32.37979 50.69659,32.37979s22.15793,-9.45998 18.76123,-36.47488c-3.07925,-24.44356 -26.98316,-30.25288 -31.9671,-31.20523c-4.19033,-6.88864 -35.93521,-59.29945 -88.8222,-38.69702c-57.33127,22.31666 -103.77404,17.01526 -103.77404,17.01526c6.82515,7.84099 14.82486,14.15822 23.52296,18.63425c11.30118,5.84106 23.9039,7.55528 36.15743,5.39663zm99.67895,-5.04744c1.99993,0.66664 4.0316,1.33329 6.06327,1.96818c-0.15872,1.93644 -1.52375,3.46019 -3.17449,3.46019c-1.74597,0 -3.20623,-1.71422 -3.20623,-3.84113c0.03174,-0.57141 0.12698,-1.11107 0.31745,-1.58724zm-12.7297,0.76188c0,-1.61899 0.2857,-3.14274 0.82537,-4.57126c1.20631,0.2857 2.41261,0.57141 3.55543,0.95235c1.20631,0.38094 2.38087,0.79362 3.58717,1.20631c-0.34919,0.98409 -0.57141,2.06342 -0.57141,3.20623c0,4.88871 3.68241,8.85682 8.22193,8.85682c3.99986,0 7.30132,-3.07925 8.0632,-7.1426c0.85711,0.19047 1.68248,0.41268 2.53959,0.57141c-1.39678,5.8728 -6.63468,10.2536 -12.92017,10.2536c-7.36481,0 -13.30111,-5.96804 -13.30111,-13.33285z" fill="#ffffff"/>
 </g>
</svg>