<svg width="750" height="750" xmlns="http://www.w3.org/2000/svg">
 <g>
  <title>background</title>
  <rect x="-1" y="-1" width="752" height="752" id="canvas_background" fill="none"/>
 </g>

 <g>
  <title>Layer 1</title>
  <path fill="#ffffff" stroke-width="0" d="m208.00003,254.6l3.6,-0.6c-20.9,9.9 -49,30.4 -67.8,44.9c-30.4,23.3 -54.1,57.9 -74,92.9c84.1,-45.7 161.8,-52.4 178.5,-48.2c0.2,0.1 -7.7,45.5 -36.7,83.6c-30.5,39.9 -82.2,72.4 -82.2,72.4c18.9,2.2 37.9,2.6 56.7,0.8c32.2,-3 65.3,-12.4 91.5,-34.7c11.6,-9.9 32.8,-39 30.5,-34.8c-12.5,31.2 -14.3,66.7 -12.3,100.6c1.1,19.9 3.2,39.6 9.1,58.4c5,16.1 12.3,31.2 20.6,45.3l8.2,6.5c0.1,-0.7 -7.9,-111.8 48.5,-166.7c102.6,-99.8 216,-4.9 216,-4.9s-4.5,-75.2 -89.6,-111.7c203.8,-18.8 159.7,102 159.7,102s69.8,-29.8 59.1,-114.9c-9.7,-77 -85,-95.3 -100.7,-98.3c-13.2,-21.7 -113.2,-186.8 -279.8,-121.9c-180.6,70.3 -326.9,53.6 -326.9,53.6c21.5,24.7 46.7,44.6 74.1,58.7c35.6,18.4 75.3,23.8 113.9,17zm314,-15.9c6.3,2.1 12.7,4.2 19.1,6.2c-0.5,6.1 -4.8,10.9 -10,10.9c-5.5,0 -10.1,-5.4 -10.1,-12.1c0.1,-1.8 0.4,-3.5 1,-5zm-40.1,2.4c0,-5.1 0.9,-9.9 2.6,-14.4c3.8,0.9 7.6,1.8 11.2,3c3.8,1.2 7.5,2.5 11.3,3.8c-1.1,3.1 -1.8,6.5 -1.8,10.1c0,15.4 11.6,27.9 25.9,27.9c12.6,0 23,-9.7 25.4,-22.5c2.7,0.6 5.3,1.3 8,1.8c-4.4,18.5 -20.9,32.3 -40.7,32.3c-23.2,0 -41.9,-18.8 -41.9,-42z" id="svg_1"/>
 </g>
</svg>